<mxfile host="Electron" modified="2024-02-04T12:44:23.646Z" agent="Mozilla/5.0 (Windows NT 10.0; Win64; x64) AppleWebKit/537.36 (KHTML, like Gecko) draw.io/22.1.21 Chrome/120.0.6099.109 Electron/28.1.0 Safari/537.36" etag="mxk4EU0VPDvNNl37m1AC" version="22.1.21" type="device">
  <diagram name="PÃ¡gina-1" id="dw67c7rHJVkl7Kbvgfk_">
    <mxGraphModel dx="1301" dy="1790" grid="1" gridSize="10" guides="1" tooltips="1" connect="1" arrows="1" fold="1" page="1" pageScale="1" pageWidth="827" pageHeight="1169" math="0" shadow="0">
      <root>
        <mxCell id="0" />
        <mxCell id="1" parent="0" />
        <mxCell id="N_uz7s-ICIcDSKpqxhLz-1" value="LOOP" style="rounded=0;whiteSpace=wrap;html=1;" parent="1" vertex="1">
          <mxGeometry x="280" y="150" width="120" height="100" as="geometry" />
        </mxCell>
        <mxCell id="N_uz7s-ICIcDSKpqxhLz-4" value="" style="edgeStyle=none;orthogonalLoop=1;jettySize=auto;html=1;rounded=0;" parent="1" edge="1">
          <mxGeometry width="100" relative="1" as="geometry">
            <mxPoint x="210" y="169.43" as="sourcePoint" />
            <mxPoint x="280" y="169.43" as="targetPoint" />
            <Array as="points" />
          </mxGeometry>
        </mxCell>
        <mxCell id="N_uz7s-ICIcDSKpqxhLz-5" value="CLR_LOOP" style="text;html=1;align=right;verticalAlign=middle;resizable=0;points=[];autosize=1;strokeColor=none;fillColor=none;fontStyle=0" parent="1" vertex="1">
          <mxGeometry x="110" y="150" width="90" height="30" as="geometry" />
        </mxCell>
        <mxCell id="N_uz7s-ICIcDSKpqxhLz-11" value="" style="edgeStyle=none;orthogonalLoop=1;jettySize=auto;html=1;rounded=0;" parent="1" edge="1">
          <mxGeometry width="100" relative="1" as="geometry">
            <mxPoint x="400" y="239.70999999999998" as="sourcePoint" />
            <mxPoint x="470" y="239.70999999999998" as="targetPoint" />
            <Array as="points" />
          </mxGeometry>
        </mxCell>
        <mxCell id="N_uz7s-ICIcDSKpqxhLz-12" value="END_LOOP" style="text;html=1;align=center;verticalAlign=middle;resizable=0;points=[];autosize=1;strokeColor=none;fillColor=none;fontStyle=0" parent="1" vertex="1">
          <mxGeometry x="465" y="225" width="90" height="30" as="geometry" />
        </mxCell>
        <mxCell id="N_uz7s-ICIcDSKpqxhLz-13" value="" style="edgeStyle=none;orthogonalLoop=1;jettySize=auto;html=1;rounded=0;" parent="1" edge="1">
          <mxGeometry width="100" relative="1" as="geometry">
            <mxPoint x="400" y="170" as="sourcePoint" />
            <mxPoint x="470" y="170" as="targetPoint" />
            <Array as="points" />
          </mxGeometry>
        </mxCell>
        <mxCell id="N_uz7s-ICIcDSKpqxhLz-14" value="INCR_LOOP" style="text;html=1;align=right;verticalAlign=middle;resizable=0;points=[];autosize=1;strokeColor=none;fillColor=none;fontStyle=0" parent="1" vertex="1">
          <mxGeometry x="110" y="180" width="90" height="30" as="geometry" />
        </mxCell>
        <mxCell id="N_uz7s-ICIcDSKpqxhLz-15" value="" style="edgeStyle=none;orthogonalLoop=1;jettySize=auto;html=1;rounded=0;" parent="1" edge="1">
          <mxGeometry width="100" relative="1" as="geometry">
            <mxPoint x="210" y="194.71" as="sourcePoint" />
            <mxPoint x="280" y="194.71" as="targetPoint" />
            <Array as="points" />
          </mxGeometry>
        </mxCell>
        <mxCell id="N_uz7s-ICIcDSKpqxhLz-16" value="RLOOP" style="text;html=1;align=left;verticalAlign=middle;resizable=0;points=[];autosize=1;strokeColor=none;fillColor=none;fontColor=#000000;fontStyle=0" parent="1" vertex="1">
          <mxGeometry x="474" y="156" width="70" height="30" as="geometry" />
        </mxCell>
        <mxCell id="N_uz7s-ICIcDSKpqxhLz-17" value="&lt;b&gt;/&lt;/b&gt;" style="text;html=1;align=center;verticalAlign=middle;resizable=0;points=[];autosize=1;strokeColor=none;fillColor=none;" parent="1" vertex="1">
          <mxGeometry x="416" y="156" width="30" height="30" as="geometry" />
        </mxCell>
        <mxCell id="N_uz7s-ICIcDSKpqxhLz-18" value="4" style="text;html=1;align=center;verticalAlign=middle;resizable=0;points=[];autosize=1;strokeColor=none;fillColor=none;" parent="1" vertex="1">
          <mxGeometry x="416" y="140" width="30" height="30" as="geometry" />
        </mxCell>
        <mxCell id="N_uz7s-ICIcDSKpqxhLz-25" value="CONT" style="rounded=0;whiteSpace=wrap;html=1;" parent="1" vertex="1">
          <mxGeometry x="280" y="350" width="120" height="110" as="geometry" />
        </mxCell>
        <mxCell id="N_uz7s-ICIcDSKpqxhLz-27" value="" style="edgeStyle=none;orthogonalLoop=1;jettySize=auto;html=1;rounded=0;" parent="1" edge="1">
          <mxGeometry width="100" relative="1" as="geometry">
            <mxPoint x="210" y="359.43" as="sourcePoint" />
            <mxPoint x="280" y="359.43" as="targetPoint" />
            <Array as="points" />
          </mxGeometry>
        </mxCell>
        <mxCell id="N_uz7s-ICIcDSKpqxhLz-28" value="PR_CONT_HALF" style="text;html=1;align=right;verticalAlign=middle;resizable=0;points=[];autosize=1;strokeColor=none;fillColor=none;fontStyle=0" parent="1" vertex="1">
          <mxGeometry x="80" y="340" width="120" height="30" as="geometry" />
        </mxCell>
        <mxCell id="N_uz7s-ICIcDSKpqxhLz-31" value="" style="edgeStyle=none;orthogonalLoop=1;jettySize=auto;html=1;rounded=0;" parent="1" edge="1">
          <mxGeometry width="100" relative="1" as="geometry">
            <mxPoint x="400" y="449.71" as="sourcePoint" />
            <mxPoint x="470" y="449.71" as="targetPoint" />
            <Array as="points" />
          </mxGeometry>
        </mxCell>
        <mxCell id="N_uz7s-ICIcDSKpqxhLz-32" value="END_CONT" style="text;html=1;align=center;verticalAlign=middle;resizable=0;points=[];autosize=1;strokeColor=none;fillColor=none;fontStyle=0" parent="1" vertex="1">
          <mxGeometry x="465" y="435" width="90" height="30" as="geometry" />
        </mxCell>
        <mxCell id="N_uz7s-ICIcDSKpqxhLz-33" value="" style="edgeStyle=none;orthogonalLoop=1;jettySize=auto;html=1;rounded=0;" parent="1" edge="1">
          <mxGeometry width="100" relative="1" as="geometry">
            <mxPoint x="400" y="380" as="sourcePoint" />
            <mxPoint x="470" y="380" as="targetPoint" />
            <Array as="points" />
          </mxGeometry>
        </mxCell>
        <mxCell id="N_uz7s-ICIcDSKpqxhLz-34" value="PR_CONT_FULL" style="text;html=1;align=right;verticalAlign=middle;resizable=0;points=[];autosize=1;strokeColor=none;fillColor=none;fontStyle=0" parent="1" vertex="1">
          <mxGeometry x="80" y="370" width="120" height="30" as="geometry" />
        </mxCell>
        <mxCell id="N_uz7s-ICIcDSKpqxhLz-35" value="" style="edgeStyle=none;orthogonalLoop=1;jettySize=auto;html=1;rounded=0;" parent="1" edge="1">
          <mxGeometry width="100" relative="1" as="geometry">
            <mxPoint x="210" y="384.89000000000004" as="sourcePoint" />
            <mxPoint x="280" y="384.89000000000004" as="targetPoint" />
            <Array as="points" />
          </mxGeometry>
        </mxCell>
        <mxCell id="N_uz7s-ICIcDSKpqxhLz-36" value="RCONT" style="text;html=1;align=left;verticalAlign=middle;resizable=0;points=[];autosize=1;strokeColor=none;fillColor=none;fontColor=#000000;fontStyle=0" parent="1" vertex="1">
          <mxGeometry x="474" y="366" width="70" height="30" as="geometry" />
        </mxCell>
        <mxCell id="N_uz7s-ICIcDSKpqxhLz-37" value="&lt;b&gt;/&lt;/b&gt;" style="text;html=1;align=center;verticalAlign=middle;resizable=0;points=[];autosize=1;strokeColor=none;fillColor=none;" parent="1" vertex="1">
          <mxGeometry x="416" y="366" width="30" height="30" as="geometry" />
        </mxCell>
        <mxCell id="N_uz7s-ICIcDSKpqxhLz-38" value="10" style="text;html=1;align=center;verticalAlign=middle;resizable=0;points=[];autosize=1;strokeColor=none;fillColor=none;" parent="1" vertex="1">
          <mxGeometry x="411" y="350" width="40" height="30" as="geometry" />
        </mxCell>
        <mxCell id="N_uz7s-ICIcDSKpqxhLz-39" value="" style="edgeStyle=none;orthogonalLoop=1;jettySize=auto;html=1;rounded=0;" parent="1" edge="1">
          <mxGeometry width="100" relative="1" as="geometry">
            <mxPoint x="210" y="410.89000000000004" as="sourcePoint" />
            <mxPoint x="280" y="410.89000000000004" as="targetPoint" />
            <Array as="points" />
          </mxGeometry>
        </mxCell>
        <mxCell id="N_uz7s-ICIcDSKpqxhLz-40" value="DECR_CONT" style="text;html=1;align=right;verticalAlign=middle;resizable=0;points=[];autosize=1;strokeColor=none;fillColor=none;fontStyle=0" parent="1" vertex="1">
          <mxGeometry x="100" y="396" width="100" height="30" as="geometry" />
        </mxCell>
        <mxCell id="N_uz7s-ICIcDSKpqxhLz-42" value="&amp;gt;&amp;gt;&lt;br&gt;Bshift_CHAR" style="rounded=0;whiteSpace=wrap;html=1;" parent="1" vertex="1">
          <mxGeometry x="280" y="550" width="120" height="80" as="geometry" />
        </mxCell>
        <mxCell id="N_uz7s-ICIcDSKpqxhLz-44" value="" style="edgeStyle=none;orthogonalLoop=1;jettySize=auto;html=1;rounded=0;" parent="1" edge="1">
          <mxGeometry width="100" relative="1" as="geometry">
            <mxPoint x="210" y="560.4300000000001" as="sourcePoint" />
            <mxPoint x="280" y="560.4300000000001" as="targetPoint" />
            <Array as="points" />
          </mxGeometry>
        </mxCell>
        <mxCell id="N_uz7s-ICIcDSKpqxhLz-45" value="RX" style="text;html=1;align=right;verticalAlign=middle;resizable=0;points=[];autosize=1;strokeColor=none;fillColor=none;fontStyle=0" parent="1" vertex="1">
          <mxGeometry x="160" y="541" width="40" height="30" as="geometry" />
        </mxCell>
        <mxCell id="N_uz7s-ICIcDSKpqxhLz-50" value="" style="edgeStyle=none;orthogonalLoop=1;jettySize=auto;html=1;rounded=0;" parent="1" edge="1">
          <mxGeometry width="100" relative="1" as="geometry">
            <mxPoint x="400" y="570" as="sourcePoint" />
            <mxPoint x="470" y="570" as="targetPoint" />
            <Array as="points" />
          </mxGeometry>
        </mxCell>
        <mxCell id="N_uz7s-ICIcDSKpqxhLz-51" value="BITSHIFT" style="text;html=1;align=right;verticalAlign=middle;resizable=0;points=[];autosize=1;strokeColor=none;fillColor=none;fontStyle=0" parent="1" vertex="1">
          <mxGeometry x="120" y="571" width="80" height="30" as="geometry" />
        </mxCell>
        <mxCell id="N_uz7s-ICIcDSKpqxhLz-52" value="" style="edgeStyle=none;orthogonalLoop=1;jettySize=auto;html=1;rounded=0;" parent="1" edge="1">
          <mxGeometry width="100" relative="1" as="geometry">
            <mxPoint x="210" y="585.8900000000001" as="sourcePoint" />
            <mxPoint x="280" y="585.8900000000001" as="targetPoint" />
            <Array as="points" />
          </mxGeometry>
        </mxCell>
        <mxCell id="N_uz7s-ICIcDSKpqxhLz-53" value="RSHIFT" style="text;html=1;align=left;verticalAlign=middle;resizable=0;points=[];autosize=1;strokeColor=none;fillColor=none;fontColor=#000000;fontStyle=0" parent="1" vertex="1">
          <mxGeometry x="474" y="556" width="70" height="30" as="geometry" />
        </mxCell>
        <mxCell id="N_uz7s-ICIcDSKpqxhLz-54" value="&lt;b&gt;/&lt;/b&gt;" style="text;html=1;align=center;verticalAlign=middle;resizable=0;points=[];autosize=1;strokeColor=none;fillColor=none;" parent="1" vertex="1">
          <mxGeometry x="416" y="556" width="30" height="30" as="geometry" />
        </mxCell>
        <mxCell id="N_uz7s-ICIcDSKpqxhLz-55" value="8" style="text;html=1;align=center;verticalAlign=middle;resizable=0;points=[];autosize=1;strokeColor=none;fillColor=none;" parent="1" vertex="1">
          <mxGeometry x="416" y="540" width="30" height="30" as="geometry" />
        </mxCell>
        <mxCell id="N_uz7s-ICIcDSKpqxhLz-58" value="10 bit cont" style="text;html=1;align=center;verticalAlign=middle;resizable=0;points=[];autosize=1;strokeColor=none;fillColor=none;" parent="1" vertex="1">
          <mxGeometry x="300" y="310" width="80" height="30" as="geometry" />
        </mxCell>
        <mxCell id="N_uz7s-ICIcDSKpqxhLz-59" value="4 bit cont" style="text;html=1;align=center;verticalAlign=middle;resizable=0;points=[];autosize=1;strokeColor=none;fillColor=none;" parent="1" vertex="1">
          <mxGeometry x="300" y="110" width="70" height="30" as="geometry" />
        </mxCell>
        <mxCell id="N_uz7s-ICIcDSKpqxhLz-60" value="Conocer el bit que esta leyendo" style="text;html=1;align=center;verticalAlign=middle;resizable=0;points=[];autosize=1;strokeColor=none;fillColor=none;" parent="1" vertex="1">
          <mxGeometry x="575" y="150" width="190" height="30" as="geometry" />
        </mxCell>
        <mxCell id="N_uz7s-ICIcDSKpqxhLz-61" value="Para colocarse en la mitad &lt;br&gt;del ciclo o avanzar un ciclo entero" style="text;html=1;align=left;verticalAlign=middle;resizable=0;points=[];autosize=1;strokeColor=none;fillColor=none;" parent="1" vertex="1">
          <mxGeometry x="590" y="361" width="200" height="40" as="geometry" />
        </mxCell>
        <mxCell id="N_uz7s-ICIcDSKpqxhLz-62" value="Bitshift register" style="text;html=1;align=left;verticalAlign=middle;resizable=0;points=[];autosize=1;strokeColor=none;fillColor=none;" parent="1" vertex="1">
          <mxGeometry x="590" y="536" width="100" height="30" as="geometry" />
        </mxCell>
        <mxCell id="N_uz7s-ICIcDSKpqxhLz-64" value="76800 bd, 651.04 -1 ciclos para 1 bit" style="text;html=1;align=left;verticalAlign=middle;resizable=0;points=[];autosize=1;strokeColor=none;fillColor=none;" parent="1" vertex="1">
          <mxGeometry x="590" y="405" width="220" height="30" as="geometry" />
        </mxCell>
        <mxCell id="N_uz7s-ICIcDSKpqxhLz-65" value="76800 bd, 325 ciclos para colocarse en la mitad" style="text;html=1;align=left;verticalAlign=middle;resizable=0;points=[];autosize=1;strokeColor=none;fillColor=none;" parent="1" vertex="1">
          <mxGeometry x="590" y="430" width="280" height="30" as="geometry" />
        </mxCell>
        <mxCell id="n_aLUPieSMHFs7jvUW3T-4" value="LCD_UART" style="rounded=0;whiteSpace=wrap;html=1;" parent="1" vertex="1">
          <mxGeometry x="280" y="-140" width="140" height="90" as="geometry" />
        </mxCell>
        <mxCell id="n_aLUPieSMHFs7jvUW3T-5" value="" style="edgeStyle=none;orthogonalLoop=1;jettySize=auto;html=1;rounded=0;" parent="1" edge="1">
          <mxGeometry width="100" relative="1" as="geometry">
            <mxPoint x="210" y="-115.57" as="sourcePoint" />
            <mxPoint x="280" y="-115.57" as="targetPoint" />
            <Array as="points" />
          </mxGeometry>
        </mxCell>
        <mxCell id="n_aLUPieSMHFs7jvUW3T-6" value="RX" style="text;html=1;align=right;verticalAlign=middle;resizable=0;points=[];autosize=1;strokeColor=none;fillColor=none;" parent="1" vertex="1">
          <mxGeometry x="160" y="-135" width="40" height="30" as="geometry" />
        </mxCell>
        <mxCell id="n_aLUPieSMHFs7jvUW3T-7" value="" style="triangle;whiteSpace=wrap;html=1;" parent="1" vertex="1">
          <mxGeometry x="280" y="-75" width="20" height="20" as="geometry" />
        </mxCell>
        <mxCell id="n_aLUPieSMHFs7jvUW3T-8" value="" style="edgeStyle=none;orthogonalLoop=1;jettySize=auto;html=1;rounded=0;" parent="1" edge="1">
          <mxGeometry width="100" relative="1" as="geometry">
            <mxPoint x="260" y="-30" as="sourcePoint" />
            <mxPoint x="280" y="-65.29000000000002" as="targetPoint" />
            <Array as="points">
              <mxPoint x="260" y="-65" />
            </Array>
          </mxGeometry>
        </mxCell>
        <mxCell id="n_aLUPieSMHFs7jvUW3T-9" value="clk" style="text;html=1;align=center;verticalAlign=middle;resizable=0;points=[];autosize=1;strokeColor=none;fillColor=none;" parent="1" vertex="1">
          <mxGeometry x="220" y="-60" width="40" height="30" as="geometry" />
        </mxCell>
        <mxCell id="n_aLUPieSMHFs7jvUW3T-11" value="" style="edgeStyle=none;orthogonalLoop=1;jettySize=auto;html=1;rounded=0;" parent="1" edge="1">
          <mxGeometry width="100" relative="1" as="geometry">
            <mxPoint x="420" y="-112.5" as="sourcePoint" />
            <mxPoint x="490" y="-112.5" as="targetPoint" />
            <Array as="points" />
          </mxGeometry>
        </mxCell>
        <mxCell id="n_aLUPieSMHFs7jvUW3T-12" value="/" style="text;html=1;align=center;verticalAlign=middle;resizable=0;points=[];autosize=1;strokeColor=none;fillColor=none;fontStyle=0;fontSize=16;" parent="1" vertex="1">
          <mxGeometry x="436" y="-127.5" width="30" height="30" as="geometry" />
        </mxCell>
        <mxCell id="n_aLUPieSMHFs7jvUW3T-13" value="8" style="text;html=1;align=center;verticalAlign=middle;resizable=0;points=[];autosize=1;strokeColor=none;fillColor=none;" parent="1" vertex="1">
          <mxGeometry x="436" y="-142.5" width="30" height="30" as="geometry" />
        </mxCell>
        <mxCell id="n_aLUPieSMHFs7jvUW3T-14" value="CHAR" style="text;html=1;align=left;verticalAlign=middle;resizable=0;points=[];autosize=1;strokeColor=none;fillColor=none;" parent="1" vertex="1">
          <mxGeometry x="500" y="-132.5" width="60" height="30" as="geometry" />
        </mxCell>
        <mxCell id="n_aLUPieSMHFs7jvUW3T-15" value="" style="triangle;whiteSpace=wrap;html=1;" parent="1" vertex="1">
          <mxGeometry x="280" y="230" width="20" height="20" as="geometry" />
        </mxCell>
        <mxCell id="n_aLUPieSMHFs7jvUW3T-16" value="" style="edgeStyle=none;orthogonalLoop=1;jettySize=auto;html=1;rounded=0;endArrow=none;endFill=0;" parent="1" edge="1">
          <mxGeometry width="100" relative="1" as="geometry">
            <mxPoint x="260" y="275" as="sourcePoint" />
            <mxPoint x="280" y="239.70999999999998" as="targetPoint" />
            <Array as="points">
              <mxPoint x="260" y="240" />
            </Array>
          </mxGeometry>
        </mxCell>
        <mxCell id="n_aLUPieSMHFs7jvUW3T-17" value="clk" style="text;html=1;align=center;verticalAlign=middle;resizable=0;points=[];autosize=1;strokeColor=none;fillColor=none;" parent="1" vertex="1">
          <mxGeometry x="220" y="250" width="40" height="30" as="geometry" />
        </mxCell>
        <mxCell id="n_aLUPieSMHFs7jvUW3T-21" value="" style="triangle;whiteSpace=wrap;html=1;" parent="1" vertex="1">
          <mxGeometry x="280" y="440" width="20" height="20" as="geometry" />
        </mxCell>
        <mxCell id="n_aLUPieSMHFs7jvUW3T-22" value="" style="edgeStyle=none;orthogonalLoop=1;jettySize=auto;html=1;rounded=0;endArrow=none;endFill=0;" parent="1" edge="1">
          <mxGeometry width="100" relative="1" as="geometry">
            <mxPoint x="260" y="485" as="sourcePoint" />
            <mxPoint x="280" y="449.71" as="targetPoint" />
            <Array as="points">
              <mxPoint x="260" y="450" />
            </Array>
          </mxGeometry>
        </mxCell>
        <mxCell id="n_aLUPieSMHFs7jvUW3T-23" value="clk" style="text;html=1;align=center;verticalAlign=middle;resizable=0;points=[];autosize=1;strokeColor=none;fillColor=none;" parent="1" vertex="1">
          <mxGeometry x="220" y="460" width="40" height="30" as="geometry" />
        </mxCell>
        <mxCell id="n_aLUPieSMHFs7jvUW3T-24" value="" style="triangle;whiteSpace=wrap;html=1;" parent="1" vertex="1">
          <mxGeometry x="280" y="610" width="20" height="20" as="geometry" />
        </mxCell>
        <mxCell id="n_aLUPieSMHFs7jvUW3T-25" value="" style="edgeStyle=none;orthogonalLoop=1;jettySize=auto;html=1;rounded=0;endArrow=none;endFill=0;" parent="1" edge="1">
          <mxGeometry width="100" relative="1" as="geometry">
            <mxPoint x="260" y="655" as="sourcePoint" />
            <mxPoint x="280" y="619.71" as="targetPoint" />
            <Array as="points">
              <mxPoint x="260" y="620" />
            </Array>
          </mxGeometry>
        </mxCell>
        <mxCell id="n_aLUPieSMHFs7jvUW3T-26" value="clk" style="text;html=1;align=center;verticalAlign=middle;resizable=0;points=[];autosize=1;strokeColor=none;fillColor=none;" parent="1" vertex="1">
          <mxGeometry x="220" y="625" width="40" height="30" as="geometry" />
        </mxCell>
        <mxCell id="Iv14-FSUBVYo6UK2hsgv-1" value="8 bitshift register" style="text;html=1;align=center;verticalAlign=middle;resizable=0;points=[];autosize=1;strokeColor=none;fillColor=none;" vertex="1" parent="1">
          <mxGeometry x="280" y="520" width="110" height="30" as="geometry" />
        </mxCell>
        <mxCell id="Iv14-FSUBVYo6UK2hsgv-2" value="" style="edgeStyle=none;orthogonalLoop=1;jettySize=auto;html=1;rounded=0;" edge="1" parent="1">
          <mxGeometry width="100" relative="1" as="geometry">
            <mxPoint x="420" y="-80" as="sourcePoint" />
            <mxPoint x="490" y="-80" as="targetPoint" />
            <Array as="points" />
          </mxGeometry>
        </mxCell>
        <mxCell id="Iv14-FSUBVYo6UK2hsgv-3" value="CMD_PX_GO" style="text;html=1;align=left;verticalAlign=middle;resizable=0;points=[];autosize=1;strokeColor=none;fillColor=none;" vertex="1" parent="1">
          <mxGeometry x="500" y="-97.5" width="100" height="30" as="geometry" />
        </mxCell>
      </root>
    </mxGraphModel>
  </diagram>
</mxfile>
